<?xml version="1.0" encoding="UTF-8" standalone="no"?>
<!-- Created with Inkscape (http://www.inkscape.org/) -->

<svg
   xmlns:dc="http://purl.org/dc/elements/1.1/"
   xmlns:cc="http://creativecommons.org/ns#"
   xmlns:rdf="http://www.w3.org/1999/02/22-rdf-syntax-ns#"
   xmlns:svg="http://www.w3.org/2000/svg"
   xmlns="http://www.w3.org/2000/svg"
   xmlns:xlink="http://www.w3.org/1999/xlink"
   xmlns:sodipodi="http://sodipodi.sourceforge.net/DTD/sodipodi-0.dtd"
   xmlns:inkscape="http://www.inkscape.org/namespaces/inkscape"
   width="100"
   height="100"
   id="svg5322"
   version="1.1"
   inkscape:version="0.92.4 (5da689c313, 2019-01-14)"
   sodipodi:docname="moderator.svg">
  <defs
     id="defs3">
    <inkscape:perspective
       sodipodi:type="inkscape:persp3d"
       inkscape:vp_x="0 : 526.18109 : 1"
       inkscape:vp_y="0 : 1000 : 0"
       inkscape:vp_z="744.09448 : 526.18109 : 1"
       inkscape:persp3d-origin="372.04724 : 350.78739 : 1"
       id="perspective5328" />
    <inkscape:perspective
       id="perspective5305"
       inkscape:persp3d-origin="0.5 : 0.33333333 : 1"
       inkscape:vp_z="1 : 0.5 : 1"
       inkscape:vp_y="0 : 1000 : 0"
       inkscape:vp_x="0 : 0.5 : 1"
       sodipodi:type="inkscape:persp3d" />
    <linearGradient
       id="linearGradient5181">
      <stop
         style="stop-color:#0fbb00;stop-opacity:1;"
         offset="0"
         id="stop5183" />
      <stop
         style="stop-color:#064400;stop-opacity:1;"
         offset="1"
         id="stop5185" />
    </linearGradient>
    <radialGradient
       inkscape:collect="always"
       xlink:href="#linearGradient3600-2"
       id="radialGradient3606-7"
       cx="324.32715"
       cy="131.40274"
       fx="324.32715"
       fy="131.40274"
       r="25.501276"
       gradientUnits="userSpaceOnUse"
       gradientTransform="matrix(0.92332021,0.38403097,-0.41592401,1.0000002,78.192026,-120.05314)" />
    <linearGradient
       id="linearGradient3600-2">
      <stop
         style="stop-color:#ffc33d;stop-opacity:1;"
         offset="0"
         id="stop3602-4" />
      <stop
         style="stop-color:#e09900;stop-opacity:1;"
         offset="1"
         id="stop3604-9" />
    </linearGradient>
    <inkscape:perspective
       id="perspective5478"
       inkscape:persp3d-origin="0.5 : 0.33333333 : 1"
       inkscape:vp_z="1 : 0.5 : 1"
       inkscape:vp_y="0 : 1000 : 0"
       inkscape:vp_x="0 : 0.5 : 1"
       sodipodi:type="inkscape:persp3d" />
    <linearGradient
       id="linearGradient5189">
      <stop
         style="stop-color:#000ec9;stop-opacity:1;"
         offset="0"
         id="stop5191" />
      <stop
         style="stop-color:#000657;stop-opacity:1;"
         offset="1"
         id="stop5193" />
    </linearGradient>
    <radialGradient
       inkscape:collect="always"
       xlink:href="#linearGradient3600-4"
       id="radialGradient3606-1"
       cx="324.32715"
       cy="131.40274"
       fx="324.32715"
       fy="131.40274"
       r="25.501276"
       gradientUnits="userSpaceOnUse"
       gradientTransform="matrix(0.92332021,0.38403097,-0.41592401,1.0000002,78.192026,-120.05314)" />
    <linearGradient
       id="linearGradient3600-4">
      <stop
         style="stop-color:#ffc33d;stop-opacity:1;"
         offset="0"
         id="stop3602-3" />
      <stop
         style="stop-color:#e09900;stop-opacity:1;"
         offset="1"
         id="stop3604-5" />
    </linearGradient>
    <inkscape:perspective
       id="perspective5559"
       inkscape:persp3d-origin="0.5 : 0.33333333 : 1"
       inkscape:vp_z="1 : 0.5 : 1"
       inkscape:vp_y="0 : 1000 : 0"
       inkscape:vp_x="0 : 0.5 : 1"
       sodipodi:type="inkscape:persp3d" />
    <linearGradient
       inkscape:collect="always"
       xlink:href="#linearGradient5173"
       id="linearGradient5179"
       x1="167.33386"
       y1="178.83276"
       x2="244.78181"
       y2="178.83276"
       gradientUnits="userSpaceOnUse" />
    <linearGradient
       id="linearGradient5173">
      <stop
         style="stop-color:#f50000;stop-opacity:1;"
         offset="0"
         id="stop5175" />
      <stop
         style="stop-color:#950000;stop-opacity:1;"
         offset="1"
         id="stop5177" />
    </linearGradient>
    <radialGradient
       inkscape:collect="always"
       xlink:href="#linearGradient3600"
       id="radialGradient5169"
       gradientUnits="userSpaceOnUse"
       gradientTransform="matrix(0.92332021,0.38403097,-0.41592401,1.0000002,78.192026,-120.05314)"
       cx="324.32715"
       cy="131.40274"
       fx="324.32715"
       fy="131.40274"
       r="25.501276" />
    <linearGradient
       id="linearGradient3600">
      <stop
         style="stop-color:#ffc13d;stop-opacity:1;"
         offset="0"
         id="stop3602" />
      <stop
         style="stop-color:#e09900;stop-opacity:1;"
         offset="1"
         id="stop3604" />
    </linearGradient>
    <radialGradient
       r="25.501276"
       fy="131.40274"
       fx="324.32715"
       cy="131.40274"
       cx="324.32715"
       gradientTransform="matrix(0.92332021,0.38403097,-0.41592401,1.0000002,78.192026,-120.05314)"
       gradientUnits="userSpaceOnUse"
       id="radialGradient5574"
       xlink:href="#linearGradient3600"
       inkscape:collect="always" />
    <inkscape:perspective
       id="perspective5663"
       inkscape:persp3d-origin="0.5 : 0.33333333 : 1"
       inkscape:vp_z="1 : 0.5 : 1"
       inkscape:vp_y="0 : 1000 : 0"
       inkscape:vp_x="0 : 0.5 : 1"
       sodipodi:type="inkscape:persp3d" />
    <radialGradient
       inkscape:collect="always"
       xlink:href="#linearGradient3600-7"
       id="radialGradient3606-8"
       cx="324.32715"
       cy="131.40274"
       fx="324.32715"
       fy="131.40274"
       r="25.501276"
       gradientUnits="userSpaceOnUse"
       gradientTransform="matrix(0.92332021,0.38403097,-0.41592401,1.0000002,78.192026,-120.05314)" />
    <linearGradient
       id="linearGradient3600-7">
      <stop
         style="stop-color:#ffc13d;stop-opacity:1;"
         offset="0"
         id="stop3602-7" />
      <stop
         style="stop-color:#e09900;stop-opacity:1;"
         offset="1"
         id="stop3604-6" />
    </linearGradient>
    <linearGradient
       inkscape:collect="always"
       xlink:href="#linearGradient5189-1"
       id="linearGradient5394"
       gradientUnits="userSpaceOnUse"
       x1="385.03503"
       y1="180.09546"
       x2="462.48297"
       y2="180.09546"
       gradientTransform="matrix(0.96839241,0,0,0.96839241,-360.365,847.52359)" />
    <linearGradient
       id="linearGradient5189-1">
      <stop
         style="stop-color:#000ec9;stop-opacity:1;"
         offset="0"
         id="stop5191-0" />
      <stop
         style="stop-color:#000657;stop-opacity:1;"
         offset="1"
         id="stop5193-4" />
    </linearGradient>
    <linearGradient
       inkscape:collect="always"
       xlink:href="#linearGradient5173-1"
       id="linearGradient5581"
       gradientUnits="userSpaceOnUse"
       x1="167.33386"
       y1="178.83276"
       x2="244.78181"
       y2="178.83276"
       gradientTransform="matrix(0.96839241,0,0,0.96839241,-149.54484,848.74636)" />
    <linearGradient
       id="linearGradient5173-1">
      <stop
         style="stop-color:#ff2700;stop-opacity:1;"
         offset="0"
         id="stop5175-5" />
      <stop
         style="stop-color:#ff2700;stop-opacity:1;"
         offset="1"
         id="stop5177-3" />
    </linearGradient>
    <linearGradient
       y2="178.83276"
       x2="244.78181"
       y1="178.83276"
       x1="167.33386"
       gradientTransform="matrix(0.96839241,0,0,0.96839241,-52.401983,877.75333)"
       gradientUnits="userSpaceOnUse"
       id="linearGradient5598"
       xlink:href="#linearGradient5173-1"
       inkscape:collect="always" />
  </defs>
  <sodipodi:namedview
     inkscape:document-units="mm"
     id="base"
     pagecolor="#ffffff"
     bordercolor="#666666"
     borderopacity="1.0"
     inkscape:pageopacity="0.0"
     inkscape:pageshadow="2"
     inkscape:zoom="2.8"
     inkscape:cx="23.311879"
     inkscape:cy="65.284297"
     inkscape:current-layer="layer1"
     showgrid="false"
     inkscape:window-width="1680"
     inkscape:window-height="987"
     inkscape:window-x="-8"
     inkscape:window-y="-8"
     inkscape:window-maximized="1" />
  <metadata
     id="metadata4">
    <rdf:RDF>
      <cc:Work
         rdf:about="">
        <dc:format>image/svg+xml</dc:format>
        <dc:type
           rdf:resource="http://purl.org/dc/dcmitype/StillImage" />
        <dc:title></dc:title>
      </cc:Work>
    </rdf:RDF>
  </metadata>
  <g
     inkscape:label="Layer 1"
     inkscape:groupmode="layer"
     id="layer1"
     transform="translate(0,-952.36218)">
    <path
       inkscape:connector-curvature="0"
       d="m 22.759244,1001.8078 c -0.863847,0.089 -1.683392,0.2215 -2.480784,0.2437 -3.344632,0.088 -6.578515,-0.3988 -9.524443,-2.0821 -3.278182,-1.86072 -5.581769,-4.58524 -7.0215093,-8.04055 -0.9745961,-2.34786 -1.439741,-4.82869 -1.4175949,-7.35372 0,-2.48081 0.4429988,-4.89512 1.3289973,-7.22086 1.8827335,-4.96156 5.2495137,-8.59415 9.8566899,-11.1414 2.237133,-1.21824 4.607167,-2.03777 7.110099,-2.59156 2.303589,-0.48728 4.562874,-0.26574 6.844317,0.19938 3.278174,0.66452 6.113363,2.1707 8.505545,4.49644 1.949194,1.90487 3.278184,4.18632 4.119877,6.77786 1.018898,3.1674 1.041045,6.37918 0.686651,9.61301 0,0.0882 0,0.17728 0,0.31014 6.157656,-1.97133 12.315322,-1.94922 18.472986,-0.0882 0.110742,-0.4874 0.06649,-0.88602 0.0221,-1.28475 -0.332249,-2.63582 -0.199353,-5.24953 0.420849,-7.86322 0.908141,-3.87621 2.879482,-7.06576 5.98046,-9.52443 1.683395,-1.32897 3.588279,-2.23714 5.648212,-2.85729 2.170692,-0.64237 4.363532,-0.88604 6.622819,-0.62023 1.484041,0.17725 2.901627,0.64238 4.297065,1.10751 3.699035,1.24038 6.977211,3.2339 9.657348,6.06906 2.23714,2.34788 3.854078,5.11663 4.828676,8.2176 0.841692,2.70228 1.151778,5.44881 0.86384,8.28407 -0.442998,4.42988 -2.104238,8.26186 -5.360268,11.34062 -1.927039,1.81642 -4.208482,3.01252 -6.800006,3.65482 -2.502941,0.6203 -5.028016,0.7088 -7.597406,0.31 -0.08859,-0.021 -0.177206,-0.021 -0.265799,-0.021 -0.02211,0 -0.06649,0.021 -0.132905,0.067 0.310101,0.9304 0.642349,1.8606 0.90815,2.813 0.465143,1.6613 0.841693,3.3447 1.018888,5.0944 0.199353,1.8386 0.265802,3.677 0.08859,5.5155 -0.708798,7.8853 -3.964827,14.5082 -9.900995,19.7799 -2.990228,2.6578 -6.467758,4.4963 -10.299688,5.6701 -3.920525,1.2183 -7.929654,1.6172 -11.960928,1.2183 -6.999358,-0.6866 -13.157013,-3.3445 -18.185041,-8.3726 -2.857333,-2.8572 -5.094465,-6.1576 -6.600663,-9.9232 -0.686642,-1.6833 -1.107492,-3.4553 -1.39544,-5.2715 -0.420849,-2.5474 -0.354393,-5.0945 -0.132894,-7.6417 0.155042,-1.7498 0.509445,-3.4556 0.930286,-5.161 0.287957,-1.1519 0.575902,-2.3035 0.930296,-3.4332 -0.04429,-0.022 -0.06649,-0.1106 -0.06649,-0.288 z"
       id="path4"
       style="fill:#000000;fill-opacity:1;stroke:#000000;stroke-width:2.65462327;stroke-miterlimit:4;stroke-dasharray:none;stroke-opacity:1" />
    <path
       style="fill:#ffffff;fill-opacity:1;stroke:none;stroke-width:2.65462327;stroke-miterlimit:4;stroke-dasharray:none;stroke-opacity:1"
       d="M 23.1875 10.675781 C 22.33261 10.68369 21.475174 10.766489 20.611328 10.949219 C 18.108396 11.503009 15.737133 12.322776 13.5 13.541016 C 8.892824 16.088266 5.5272643 19.720081 3.6445312 24.681641 C 2.7585326 27.007381 2.3144531 29.421534 2.3144531 31.902344 C 2.292307 34.427374 2.7578253 36.907999 3.7324219 39.255859 C 5.1721619 42.711169 7.4757243 45.436155 10.753906 47.296875 C 13.699834 48.980215 16.934665 49.466906 20.279297 49.378906 C 21.076689 49.356706 21.895919 49.223766 22.759766 49.134766 L 22.759766 49.136719 C 22.759766 49.314119 22.781882 49.403781 22.826172 49.425781 C 22.471778 50.555481 22.182488 51.707475 21.894531 52.859375 C 21.47369 54.564775 21.119886 56.269731 20.964844 58.019531 C 20.743345 60.566731 20.676807 63.114709 21.097656 65.662109 C 21.385604 67.478309 21.807499 69.250294 22.494141 70.933594 C 24.000339 74.699194 26.236417 77.998269 29.09375 80.855469 C 34.121778 85.883569 40.279939 88.541916 47.279297 89.228516 C 47.472264 89.24761 47.664564 89.256048 47.857422 89.271484 L 47.857422 30.955078 C 45.494262 31.133159 43.130736 31.589155 40.767578 32.345703 L 40.767578 32.035156 C 41.121972 28.801326 41.098976 25.589275 40.080078 22.421875 C 39.238385 19.830335 37.910131 17.549401 35.960938 15.644531 C 33.568755 13.318791 30.733252 11.812958 27.455078 11.148438 C 26.029176 10.857737 24.612317 10.6626 23.1875 10.675781 z "
       transform="translate(0,952.36218)"
       id="path4-6" />
    <path
       inkscape:connector-curvature="0"
       d="m 22.759243,1001.8078 c -0.863847,0.089 -1.683392,0.2215 -2.480784,0.2437 -3.344632,0.088 -6.578515,-0.3988 -9.524443,-2.08217 -3.2781825,-1.86068 -5.5817695,-4.5852 -7.0215095,-8.04051 -0.9745966,-2.34786 -1.4397415,-4.82869 -1.4175954,-7.35372 0,-2.48081 0.4429988,-4.89512 1.3289974,-7.22086 1.882733,-4.96156 5.249514,-8.59415 9.8566905,-11.1414 2.237133,-1.21824 4.607167,-2.03777 7.110099,-2.59156 2.303589,-0.48728 4.562874,-0.26574 6.844317,0.19938 3.278174,0.66452 6.113363,2.1707 8.505545,4.49644 1.949194,1.90487 3.278184,4.18632 4.119877,6.77786 1.018898,3.1674 1.041045,6.37918 0.686651,9.61301 0,0.0882 0,0.17728 0,0.31014 6.157656,-1.97133 12.315322,-1.94922 18.472986,-0.0882 0.110742,-0.4874 0.06649,-0.88602 0.0221,-1.28475 -0.332249,-2.63582 -0.199353,-5.24953 0.420849,-7.86322 0.908141,-3.87621 2.879482,-7.06576 5.98046,-9.52443 1.683395,-1.32897 3.588279,-2.23714 5.648212,-2.85729 2.170692,-0.64237 4.363532,-0.88604 6.622819,-0.62023 1.484041,0.17725 2.901627,0.64238 4.297065,1.10751 3.699035,1.24038 6.977211,3.2339 9.657348,6.06906 2.237138,2.34788 3.854078,5.11663 4.828678,8.2176 0.84169,2.70228 1.15178,5.44881 0.86384,8.28407 -0.443,4.42988 -2.10424,8.26186 -5.36027,11.34062 -1.927039,1.81642 -4.208482,3.01255 -6.800006,3.65485 -2.502941,0.6203 -5.028016,0.7088 -7.597406,0.31 -0.08859,-0.021 -0.177206,-0.021 -0.265799,-0.021 -0.02211,0 -0.06649,0.021 -0.132905,0.067 0.310101,0.9304 0.642349,1.8606 0.90815,2.813 0.465143,1.6613 0.841693,3.3447 1.018888,5.0944 0.199353,1.8386 0.265802,3.677 0.08859,5.5155 -0.708798,7.8853 -3.964827,14.5082 -9.900995,19.7799 -2.990228,2.6578 -6.467758,4.4963 -10.299688,5.6701 -3.920525,1.2183 -7.929654,1.6172 -11.960928,1.2183 -6.999358,-0.6866 -13.157013,-3.3445 -18.185041,-8.3726 -2.857333,-2.8572 -5.094465,-6.1576 -6.600663,-9.9232 -0.686642,-1.6833 -1.107492,-3.4553 -1.39544,-5.2715 -0.420849,-2.5474 -0.354393,-5.0945 -0.132894,-7.6417 0.155042,-1.7498 0.509445,-3.4556 0.930286,-5.161 0.287957,-1.1519 0.575902,-2.3035 0.930296,-3.4332 -0.04429,-0.022 -0.06649,-0.1106 -0.06649,-0.288 z"
       id="path4-6-3"
       style="fill:none;fill-opacity:1;stroke:#000000;stroke-width:2.65462327;stroke-miterlimit:4;stroke-dasharray:none;stroke-opacity:1" />
  </g>
</svg>
